<svg xmlns="http://www.w3.org/2000/svg" width="800" height="800" viewBox="0 0 32 32" xml:space="preserve"><path d="M21 19.29v1.414L15.704 26H14.29L21 19.29zM10.29 26h1.414l8.97-8.969a6.992 6.992 0 0 0-.418-.998L10.29 26zm8 0h1.414L21 24.704V23.29L18.29 26zM10 22.29v1.414l9.227-9.226c-.268-.307-.477-.478-.477-.478.001-.166.011-.32.019-.478L10 22.29zm9.425-12.011C20.098 8.678 21 7.968 21 7.968l.341-1.019-11.286 11.286a6.28 6.28 0 0 0-.055.742v.727l9.425-9.425zM16.704 1H15.29L9.579 6.711l.355 1.059L16.704 1zm4.422 3.578-.968-.447-8.062 8.062c.065.395.11.821.133 1.281l8.897-8.896zm-2.737-1.263-.703-.324-.006-.381-6.623 6.623c.162.266.325.575.477.937l6.855-6.855z" style="fill:#ffc5bb"/><path d="M21.586 8.778a.998.998 0 0 0 .362-.493l1-2.986a.999.999 0 0 0-.529-1.225l-3.744-1.728-.024-1.363A1 1 0 0 0 17.652 0h-4.304a1 1 0 0 0-1 .983l-.024 1.363-3.743 1.728a.999.999 0 0 0-.529 1.225l1 2.986a.998.998 0 0 0 .362.493c.061.047 1.676 1.326 1.825 4.806-.708.738-2.178 2.596-2.239 5.371V26a1 1 0 0 0 1 1h5v4.5a.5.5 0 0 0 1 0V27h5a1 1 0 0 0 1-1v-7.023c-.06-2.753-1.538-4.641-2.24-5.386.151-3.503 1.808-4.8 1.826-4.813zM18.75 14s2.182 1.867 2.25 4.977V26H10v-7.023C10.07 15.806 12.25 14 12.25 14 12.215 9.569 10 7.968 10 7.968L9 4.982l4.313-1.991L13.348 1h4.304l.035 1.991L22 4.982l-1 2.986S18.785 9.569 18.75 14z" style="fill:#265aa5"/></svg>